# xmcd
#
# Track frame offsets:
#	150
#	12148
#	26800
#	47748
#	66929
#	83672
#	104838
#	119551
#	137047
#	152107
#
# Disc length: 2287 seconds
#
# Revision: 0
# Processed by: cddbd v1.5.1PL0 Copyright (c) Steve Scherf et al.
# Submitted via: EasyCDDAExtractor 7.5.0.1
#
DISCID=8808ed0a
DTITLE=Christian Ebner - Home
DYEAR=2004
DGENRE=Gospel
TTITLE0=Temporary Home
TTITLE1=No, Not One
TTITLE2=How Lovely Your Dwelling Place
TTITLE3=Had It Not Been
TTITLE4=Revelation
TTITLE5=Home
TTITLE6=The Old Rugged Cross
TTITLE7=Search Me, O God
TTITLE8=So High
TTITLE9=What A Friend We Have in Jesus
EXTD=
EXTT0=
EXTT1=
EXTT2=
EXTT3=
EXTT4=
EXTT5=
EXTT6=
EXTT7=
EXTT8=
EXTT9=
PLAYORDER=
